<?xml version="1.0" encoding="utf-8"?>
<!-- Generator: Adobe Illustrator 28.2.0, SVG Export Plug-In . SVG Version: 6.00 Build 0)  -->
<svg version="1.1" id="Layer_2_00000161626207230355748990000009454068366647582140_"
	 xmlns="http://www.w3.org/2000/svg" xmlns:xlink="http://www.w3.org/1999/xlink" x="0px" y="0px" viewBox="0 0 172.9 477.5"
	 style="enable-background:new 0 0 172.9 477.5;" xml:space="preserve">
<style type="text/css">
	.st0{fill:#917E5A;}
</style>
<g id="Layer_1-2">
	<g>
		<path class="st0" d="M157.5,34.2l-3.9,6c-5.3-4.2-11-8.2-17-12.1l-6.6,11.5l-20.1-11.6l6.6-11.5c-6.3-3.2-12.7-6.2-18.9-8.6
			l3.2-6.4C77.9-3.2,56.9,2.9,45,23.5l-5,8.7c-3.6,6.3-0.3,12.7,4.8,17.9c4.5,4.6,11.3,9.9,18.5,15l-0.1,0.2l58,33.5l0.1-0.2
			c8.1,3.7,16,6.9,22.3,8.5c7,1.8,14.3,1.5,17.9-4.8l5-8.7C178.3,73,173,51.7,157.5,34.2L157.5,34.2z"/>
		<polygon class="st0" points="0,396.4 66.8,378.5 66.8,339.3 0,357.2 		"/>
		<polygon class="st0" points="0,303.3 66.8,285.4 66.8,246.2 0,264.1 		"/>
		<polygon class="st0" points="0,443 66.8,425.1 66.8,385.8 0,403.7 		"/>
		<polygon class="st0" points="23.3,134.1 90.1,152 109.8,118 42.9,100.1 		"/>
		<polygon class="st0" points="0,349.9 66.8,332 66.8,292.7 0,310.6 		"/>
		<path class="st0" d="M0,450.3v19.2c0,4.4,3.6,8,8,8h50.8c4.4,0,8-3.6,8-8v-37.1L0,450.3z"/>
		<polygon class="st0" points="0,256.8 66.8,238.9 66.8,199.6 0,217.6 		"/>
		<polygon class="st0" points="113.4,111.7 127,88.1 69.1,54.7 46.6,93.8 		"/>
		<path class="st0" d="M0,210.2l66.9-17.9l19.6-34l-66.8-17.9l-12.1,21C2.6,169.9,0,179.6,0,189.5L0,210.2L0,210.2z"/>
	</g>
</g>
</svg>
