<?xml version="1.0" encoding="UTF-8"?>
<svg id="Layer_2" data-name="Layer 2" xmlns="http://www.w3.org/2000/svg" xmlns:xlink="http://www.w3.org/1999/xlink" version="1.1" viewBox="0 0 288 314.1">
  <defs>
    <style>
      .cls-1 {
        clip-path: url(#clippath);
      }

      .cls-2 {
        fill: none;
      }

      .cls-2, .cls-3, .cls-4 {
        stroke-width: 0px;
      }

      .cls-3 {
        fill: #915b7f;
      }

      .cls-5 {
        clip-path: url(#clippath-1);
      }

      .cls-6 {
        clip-path: url(#clippath-4);
      }

      .cls-7 {
        clip-path: url(#clippath-3);
      }

      .cls-8 {
        clip-path: url(#clippath-2);
      }

      .cls-4 {
        fill: #fff;
      }
    </style>
    <clipPath id="clippath">
      <rect class="cls-2" y="0" width="288" height="314.1"/>
    </clipPath>
    <clipPath id="clippath-1">
      <rect class="cls-2" y="0" width="288" height="314.1"/>
    </clipPath>
    <clipPath id="clippath-2">
      <rect class="cls-2" y="0" width="288" height="314.1"/>
    </clipPath>
    <clipPath id="clippath-3">
      <rect class="cls-2" y="0" width="288" height="314.1"/>
    </clipPath>
    <clipPath id="clippath-4">
      <rect class="cls-2" y="0" width="288" height="314.1"/>
    </clipPath>
  </defs>
  <path class="cls-3" d="M108.6,80.1l.6-.6-.6.6Z"/>
  <polygon class="cls-3" points="125.1 112.1 190.7 46.5 159.9 28.7 109.2 79.5 111.3 77.4 142.1 95.2 139.4 97.9 108.6 80.1 94.3 94.3 125.1 112.1"/>
  <polygon class="cls-3" points="148.6 216.3 179.4 234 227.5 185.9 196.7 168.2 148.6 216.3"/>
  <polygon class="cls-3" points="101.9 174.9 70.7 206 101.5 223.8 132.7 192.7 101.9 174.9"/>
  <polygon class="cls-3" points="104.6 172.2 135.4 190 183.4 141.9 152.6 124.1 104.6 172.2"/>
  <polygon class="cls-3" points="217.3 108.1 186.5 90.3 155.3 121.5 186.1 139.3 217.3 108.1"/>
  <g class="cls-1">
    <path class="cls-3" d="M58.2,218.6c-.7.7-1.5,1.3-2.3,1.8l9,33.6c6.4-2.3,12.4-6.1,17.5-11.2l16.4-16.4-30.8-17.8-9.9,9.9h0Z"/>
    <path class="cls-3" d="M249.6,95.5c.7.7,1.3,1.5,1.8,2.2l17.7-30.7c-11.2-8.6-25.3-11.7-38.6-9.1l9,33.5c3.7,0,7.3,1.3,10.1,4.1h0Z"/>
    <path class="cls-3" d="M235.9,92l-8.9-33.2c-7.9,2.1-15.3,6.3-21.4,12.4l-16.4,16.4,30.8,17.8,9.9-9.9c1.7-1.7,3.8-2.9,6-3.5"/>
    <path class="cls-3" d="M273.9,71.2c-.6-.6-1.3-1.2-1.9-1.8l-18.7,32.5c.5,2,.6,4,.2,6.1l30.2,17.5c8.1-17.8,4.8-39.6-9.8-54.2h0Z"/>
    <path class="cls-3" d="M273.9,139.6l-24.3-24.3-50.2,50.2,30.8,17.8,43.7-43.7h0ZM282,128.7l-29.8-17.2h0c-.7,1.4-1.6,2.7-2.7,3.8l24.3,24.3c3.3-3.3,6-7,8.2-10.9"/>
    <path class="cls-3" d="M36.4,201.3c.6-.9,1.2-1.7,2-2.5l67.1-67.1-30.8-17.8-14.3,14.3,30.8,17.8-2.7,2.7-30.8-17.8-43.7,43.7c-2.9,2.9-5.4,6.2-7.5,9.6l29.8,17.2h0Z"/>
    <path class="cls-3" d="M34.9,204.7l-30-17.3c-8.9,18-5.8,40.5,9.2,55.5,1.7,1.7,3.4,3.2,5.3,4.6l17.6-30.5c-2.6-3.6-3.3-8.2-2.1-12.3Z"/>
    <path class="cls-3" d="M39.7,219.7l-17.2,29.8c11.7,7.4,26,9.3,39.1,5.7l-8.9-33.2c-4.3,1.4-9.2.6-12.9-2.3"/>
  </g>
  <polygon class="cls-3" points="84.8 161.7 67 192.5 115.1 240.6 132.9 209.8 84.8 161.7"/>
  <g class="cls-5">
    <path class="cls-3" d="M50.9,91.7l17.5-30.2c-17.8-8.1-39.6-4.8-54.2,9.8-.6.6-1.2,1.3-1.8,1.9l32.5,18.7c2-.5,4.1-.6,6.1-.2"/>
    <path class="cls-3" d="M38.4,95.5c.7-.7,1.5-1.3,2.2-1.8l-30.7-17.7C1.4,87.2-1.7,101.3.9,114.6l33.5-9c0-3.7,1.3-7.3,4.1-10.1"/>
  </g>
  <polygon class="cls-3" points="111.1 148.4 159.2 196.5 176.9 165.7 128.8 117.6 111.1 148.4"/>
  <g class="cls-8">
    <path class="cls-3" d="M126.2,115l-43.7-43.7c-3.3-3.3-7-6-10.9-8.2l-17.2,29.8c1.4.7,2.7,1.5,3.8,2.7h0s50.2,50.2,50.2,50.2l17.8-30.8Z"/>
  </g>
  <polygon class="cls-3" points="203.2 152.5 221 121.7 172.9 73.6 155.1 104.4 203.2 152.5"/>
  <polygon class="cls-3" points="237 186.3 250.5 162.9 256.4 157.1 223.6 124.3 205.9 155.1 237 186.3"/>
  <g class="cls-7">
    <path class="cls-3" d="M233.6,221.3c-1.4-.7-2.7-1.5-3.8-2.7h0s-50.2-50.2-50.2-50.2l-17.8,30.8,43.7,43.7c3.3,3.3,7,6,10.9,8.2l17.2-29.8Z"/>
    <path class="cls-3" d="M286.3,196c-2.1-7.9-6.3-15.3-12.4-21.4l-16.4-16.4-17.8,30.8,9.9,9.9c1.7,1.7,2.9,3.8,3.5,6l33.2-8.9Z"/>
    <path class="cls-3" d="M237.1,222.4l-17.5,30.2c17.8,8.1,39.6,4.8,54.2-9.8.6-.6,1.2-1.3,1.8-1.9l-32.5-18.7c-2,.5-4.1.6-6.1.2"/>
    <path class="cls-3" d="M287.1,199.5l-33.5,9c0,3.7-1.3,7.3-4.1,10.1-.7.7-1.5,1.3-2.2,1.8l30.7,17.7c8.6-11.2,11.7-25.3,9.1-38.6h0Z"/>
    <path class="cls-3" d="M82.1,159l-31.2-31.2-13.5,23.4-5.9,5.9-1.1-1.1,17.8-30.8-9.9-9.9c-1.7-1.7-2.9-3.8-3.5-6L1.7,118.1c2.1,7.9,6.3,15.3,12.4,21.4l50.2,50.2,17.8-30.8h0Z"/>
    <path class="cls-3" d="M186.9,263.7l-17.8,30.8,10,10c1.6,1.6,4.2,1.6,5.8,0l18.5-18.5c1.6-1.6,1.6-4.2,0-5.8l-16.5-16.5h0Z"/>
  </g>
  <polygon class="cls-3" points="169.4 246.2 151.6 277 148.9 274.4 162.4 251 168.3 245.2 135.5 212.4 117.8 243.2 166.4 291.9 184.2 261.1 169.4 246.2"/>
  <polygon class="cls-3" points="108.2 129 122.5 114.8 91.7 97 77.4 111.2 108.2 129"/>
  <g class="cls-6">
    <path class="cls-3" d="M179.1,9.6l-16.5,16.5,30.8,17.8,10-10c1.6-1.6,1.6-4.2,0-5.8l-18.5-18.5c-1.6-1.6-4.2-1.6-5.8,0h0Z"/>
    <path class="cls-3" d="M78.6,286.7s0,0,0,0h0s0,0,0,0ZM145.9,218.9l-40.7,40.7h0s0,0,0,0c-3.5-2.9-7-5.6-9.9-7.2-3.2-1.8-6.9-2.6-9.5,0l-3.6,3.6c-8.7,8.7-8.9,19.9-3.5,30.7l2.8-2.5c2.1,2.8,4.4,5.6,6.8,8.3l4.8-4.8,8.4,8.4-4.8,4.8c2.7,2.4,5.5,4.7,8.3,6.8l-2.5,2.8c10.8,5.4,22,5.2,30.7-3.5l3.6-3.6c2.6-2.6,1.8-6.3,0-9.5-1.6-2.9-4.3-6.4-7.2-9.9h0c0,0,0,0,0,0l47.2-47.2-30.8-17.8Z"/>
    <path class="cls-3" d="M102.4,3.6s0,0,0,0h0s0,0,0,0ZM136.7,20.3c1.8-3.2,2.6-6.9,0-9.5l-3.6-3.6c-8.7-8.7-19.9-8.9-30.7-3.5l2.5,2.8c-2.8,2.1-5.6,4.4-8.3,6.8l4.8,4.8-8.4,8.4-4.8-4.8c-2.4,2.7-4.7,5.5-6.8,8.3l-2.8-2.5c-5.4,10.8-5.2,22,3.5,30.7l3.6,3.6c2.6,2.6,6.3,1.8,9.5,0,2.9-1.6,6.4-4.3,9.9-7.2h0c0,0,0,0,0,0l13.3,13.3,17.8-30.8,2.7,2.7-13.5,23.4-5.9,5.9,32.7,32.7,17.8-30.8-40.7-40.7h0s0,0,0,0c2.9-3.5,5.6-7,7.2-9.9"/>
  </g>
  <path class="cls-4" d="M129,235.8l30.9,17.8,2.7-2.7-30.9-17.8-2.7,2.7ZM135.7,141l30.8,17.8,2.7-2.7-30.8-17.8-2.7,2.7ZM112.1,252.7l30.9,17.8,2.7-2.7-30.9-17.8-2.7,2.7ZM193.8,182.6l-17.8,30.8,2.7,2.7,17.8-30.8-2.7-2.7ZM213.6,151.2l30.8,17.8,2.7-2.7-30.8-17.8-2.7,2.7ZM193,230.3l2.7,2.7,17.8-30.8-2.7-2.7-17.8,30.8ZM233.2,131.7l-2.7,2.7,30.8,17.8,2.7-2.7-30.8-17.8ZM116,192.8l-17.8,30.8,2.7,2.7,17.8-30.8-2.7-2.7ZM187.2,87.8l-17.8,30.8,2.7,2.7,17.8-30.8-2.7-2.7ZM159,78.3l-30.8-17.8-2.7,2.7,30.8,17.8,2.7-2.7ZM173.2,64l2.7-2.7-30.8-17.8-1.1,1.1-1.6,1.6,7.4,4.3,23.4,13.5h0ZM188.9,138.2l17.8-30.8-2.7-2.7-17.8,30.8,2.7,2.7ZM152.3,173.1l-30.8-17.8-2.7,2.7,30.8,17.8,2.7-2.7ZM92.4,81.1l-17.8,30.8,2.7,2.7,17.8-30.8-2.7-2.7ZM99.1,175.9l-17.8,30.8,2.7,2.7,17.8-30.8-2.7-2.7ZM40.9,147.7l30.8,17.8,2.7-2.7-30.8-17.8-2.7,2.7ZM94.1,131.5l17.8-30.8-2.7-2.7-17.8,30.8,2.7,2.7ZM26.7,162l30.8,17.8-2.7,2.7-30.8-17.8,2.7-2.7Z"/>
</svg>